<svg xmlns="http://www.w3.org/2000/svg" viewBox="0 0 800 1000" role="img" aria-labelledby="title desc">
  <title id="title">Merge Masters cover</title>
  <desc id="desc">Merged character cards with a bright battle finish.</desc>
  <defs>
    <linearGradient id="bg" x1="0" y1="0" x2="1" y2="1">
      <stop offset="0" stop-color="#ff4f81"/>
      <stop offset="0.48" stop-color="#7c3aed"/>
      <stop offset="1" stop-color="#111827"/>
    </linearGradient>
    <filter id="shadow" x="-20%" y="-20%" width="140%" height="140%">
      <feDropShadow dx="0" dy="22" stdDeviation="16" flood-color="#2a0c37" flood-opacity="0.35"/>
    </filter>
  </defs>
  <rect width="800" height="1000" fill="url(#bg)"/>
  <g filter="url(#shadow)">
    <rect x="124" y="318" width="180" height="250" rx="28" fill="#fff7ed" transform="rotate(-10 214 443)"/>
    <rect x="310" y="248" width="180" height="250" rx="28" fill="#e0f2fe"/>
    <rect x="496" y="318" width="180" height="250" rx="28" fill="#fef9c3" transform="rotate(10 586 443)"/>
  </g>
  <circle cx="400" cy="330" r="76" fill="#ffcf33" stroke="#111827" stroke-width="16"/>
  <path d="M350 456 C370 392 430 392 450 456 L482 560 L318 560 Z" fill="#111827"/>
  <path d="M190 405 L230 455 L190 505 L150 455 Z" fill="#ff4f81"/>
  <path d="M610 405 L650 455 L610 505 L570 455 Z" fill="#36b37e"/>
  <path d="M290 650 L510 650 L475 722 L325 722 Z" fill="#ffffff" opacity="0.92"/>
  <text x="400" y="835" text-anchor="middle" font-family="Arial, Helvetica, sans-serif" font-size="72" font-weight="900" fill="#ffffff">MERGE</text>
  <text x="400" y="908" text-anchor="middle" font-family="Arial, Helvetica, sans-serif" font-size="68" font-weight="900" fill="#ffd6e5">MASTERS</text>
</svg>
