<svg xmlns="http://www.w3.org/2000/svg" viewBox="0 0 800 1000" role="img" aria-labelledby="title desc">
  <title id="title">Rocket Rescue cover</title>
  <desc id="desc">A rocket flying through bright planets.</desc>
  <defs>
    <linearGradient id="space" x1="0" y1="0" x2="1" y2="1">
      <stop offset="0" stop-color="#101828"/>
      <stop offset="0.52" stop-color="#1849a9"/>
      <stop offset="1" stop-color="#00a8ff"/>
    </linearGradient>
    <linearGradient id="fire" x1="0" y1="0" x2="0" y2="1">
      <stop offset="0" stop-color="#fff2a8"/>
      <stop offset="1" stop-color="#ff5a1f"/>
    </linearGradient>
  </defs>
  <rect width="800" height="1000" fill="url(#space)"/>
  <circle cx="640" cy="210" r="95" fill="#ffcf33"/>
  <circle cx="610" cy="180" r="22" fill="#ff8a00" opacity="0.45"/>
  <circle cx="120" cy="320" r="48" fill="#75e0a7"/>
  <circle cx="690" cy="620" r="58" fill="#ff4f81"/>
  <g transform="translate(400 430) rotate(28)">
    <path d="M0 -230 C95 -120 110 80 0 190 C-110 80 -95 -120 0 -230 Z" fill="#ffffff"/>
    <path d="M0 -230 C46 -150 56 65 0 190 C58 100 82 -120 0 -230 Z" fill="#d6ecff"/>
    <circle cx="0" cy="-40" r="54" fill="#00a8ff" stroke="#101828" stroke-width="16"/>
    <path d="M-92 72 L-190 170 L-48 152 Z" fill="#ff4f81"/>
    <path d="M92 72 L190 170 L48 152 Z" fill="#ff4f81"/>
    <path d="M-42 184 C-18 275 18 275 42 184 Z" fill="url(#fire)"/>
  </g>
  <text x="400" y="835" text-anchor="middle" font-family="Arial, Helvetica, sans-serif" font-size="72" font-weight="900" fill="#ffffff">ROCKET</text>
  <text x="400" y="908" text-anchor="middle" font-family="Arial, Helvetica, sans-serif" font-size="68" font-weight="900" fill="#8ee8ff">RESCUE</text>
</svg>
